<?xml version="1.0" encoding="UTF-8" standalone="no"?>
<!DOCTYPE svg PUBLIC "-//W3C//DTD SVG 1.1//EN" "http://www.w3.org/Graphics/SVG/1.1/DTD/svg11.dtd">
<svg width="100%" height="100%" viewBox="0 0 319 64" version="1.1" xmlns="http://www.w3.org/2000/svg" xmlns:xlink="http://www.w3.org/1999/xlink" xml:space="preserve" style="fill-rule:evenodd;clip-rule:evenodd;stroke-linejoin:round;stroke-miterlimit:1.41421;">
    <g id="EasyShop-.--Vertical" transform="matrix(1.69676,0,0,1.69676,-125.01,-70.4263)">
        <g id="Type" transform="matrix(0.269934,0,0,0.269934,90.4715,-34.2641)">
            <g id="Easy" transform="matrix(0.24,0,0,0.24,0,0)">
                <path d="M1355.47,1745.69L1287.58,1745.69L1341.36,1629.58L1240.61,1384.69L1308.66,1384.69L1377.13,1550.25L1452.98,1384.69L1520.86,1384.69L1355.47,1745.69ZM1233.78,1422.12L1192.78,1463.36C1176.18,1446.77 1161.08,1438.46 1147.47,1438.46C1140.08,1438.46 1134.28,1440.04 1130.04,1443.2C1125.81,1446.35 1123.73,1450.25 1123.73,1454.9C1123.73,1458.46 1125.06,1461.7 1127.72,1464.69C1130.37,1467.68 1137.01,1471.74 1147.55,1476.97L1171.78,1489.09C1197.34,1501.62 1214.94,1514.48 1224.48,1527.51C1234.03,1540.62 1238.75,1555.89 1238.75,1573.49C1238.75,1596.89 1230.13,1616.48 1212.86,1632.08C1195.6,1647.76 1172.45,1655.56 1143.4,1655.56C1104.9,1655.56 1074.03,1640.54 1051.03,1610.41L1091.95,1565.94C1099.75,1574.98 1108.88,1582.37 1119.42,1587.93C1129.88,1593.49 1139.17,1596.31 1147.3,1596.31C1156.02,1596.31 1163.15,1594.24 1168.46,1590C1173.86,1585.77 1176.51,1580.96 1176.51,1575.48C1176.51,1565.27 1166.89,1555.32 1147.55,1545.69L1125.23,1534.48C1082.4,1512.99 1061,1486.1 1061,1453.82C1061,1432.99 1069.05,1415.14 1085.15,1400.37C1101.24,1385.6 1121.83,1378.21 1146.89,1378.21C1164.07,1378.21 1180.16,1382.04 1195.35,1389.59C1210.45,1397.14 1223.24,1408.01 1233.78,1422.12ZM889.835,1655.03C886.084,1655.38 882.267,1655.56 878.384,1655.56C844.113,1655.56 814.568,1642.37 789.588,1615.89C764.609,1589.5 752.159,1556.64 752.159,1517.38C752.159,1476.64 764.276,1443.28 788.426,1417.22C812.576,1391.24 841.872,1378.21 876.393,1378.21C881.071,1378.21 885.655,1378.47 890.15,1378.99L890.584,1379.04C901.247,1380.29 911.409,1382.99 921.126,1387.1C935.068,1392.99 947.93,1401.95 959.797,1413.73L959.797,1384.69L1026.02,1384.69L1026.02,1649.09L959.797,1649.09L959.797,1620.96C946.851,1633.24 933.822,1642.04 920.793,1647.43C911.318,1651.36 901.226,1653.87 890.584,1654.95L889.835,1655.03ZM729.221,1358.3L601.754,1358.3L601.754,1422.53L729.221,1422.53L729.221,1488.26L601.754,1488.26L601.754,1582.37L729.221,1582.37L729.221,1649.09L534.033,1649.09L534.033,1291.58L729.221,1291.58L729.221,1358.3ZM890.001,1438.96C869.421,1438.96 852.326,1446.19 838.801,1460.71C825.188,1475.15 818.384,1493.74 818.384,1516.39C818.384,1539.22 825.272,1557.97 839.13,1572.74C852.992,1587.43 870.005,1594.81 890.251,1594.82L890.584,1594.82C911.268,1594.74 928.501,1587.52 942.122,1573.07C955.897,1558.63 962.784,1539.63 962.784,1516.14C962.784,1493.16 955.897,1474.57 942.122,1460.29C928.555,1446.23 911.322,1439.09 890.584,1438.96L890.001,1438.96Z" style="fill:white;"/>
            </g>
            <g id="Shop" transform="matrix(0.24,0,0,0.24,0,0)">
                <path d="M2494.28,1655.5C2474.92,1654.95 2457,1650.58 2440.52,1642.45C2422.84,1633.65 2406.91,1620.63 2392.64,1603.28L2392.64,1745.69L2358.77,1745.69L2358.77,1384.69L2392.64,1384.69L2392.64,1433.32C2406.08,1414.81 2421.51,1401.04 2439.02,1391.91C2455.88,1383.12 2474.59,1378.56 2495.21,1378.23L2495.81,1378.23C2496.41,1378.22 2497.01,1378.21 2497.61,1378.21C2535.21,1378.21 2567.32,1391.74 2594.05,1418.71C2620.77,1445.69 2634.13,1478.22 2634.13,1516.14C2634.13,1554.98 2620.85,1587.85 2594.38,1614.98C2567.9,1642.04 2535.95,1655.56 2498.53,1655.56C2497.41,1655.56 2496.31,1655.55 2495.21,1655.53L2494.28,1655.5ZM1511.19,1582.2L1541.56,1563.94C1562.98,1603.45 1587.7,1623.2 1615.76,1623.2C1627.79,1623.2 1639.07,1620.37 1649.62,1614.82C1660.15,1609.26 1668.21,1601.71 1673.68,1592.33C1679.24,1582.95 1681.98,1572.99 1681.98,1562.45C1681.98,1550.5 1677.91,1538.8 1669.78,1527.26C1658.58,1511.41 1638.16,1492.24 1608.37,1469.92C1578.49,1447.35 1559.9,1431.08 1552.6,1421.04C1539.91,1404.19 1533.6,1385.93 1533.6,1366.35C1533.6,1350.83 1537.33,1336.63 1544.8,1323.86C1552.27,1311.08 1562.81,1301.04 1576.42,1293.65C1590.03,1286.27 1604.72,1282.62 1620.65,1282.62C1637.58,1282.62 1653.43,1286.77 1668.12,1295.14C1682.81,1303.44 1698.41,1318.79 1714.84,1341.12L1685.63,1363.28C1672.1,1345.43 1660.57,1333.65 1651.03,1328.01C1641.48,1322.28 1631.11,1319.46 1619.91,1319.46C1605.38,1319.46 1593.52,1323.86 1584.3,1332.57C1575.09,1341.37 1570.44,1352.08 1570.44,1364.93C1570.44,1372.66 1572.1,1380.21 1575.34,1387.51C1578.58,1394.81 1584.55,1402.7 1593.18,1411.33C1597.83,1415.81 1613.35,1427.76 1639.57,1447.02C1670.61,1469.92 1691.94,1490.25 1703.47,1508.01C1715.01,1525.85 1720.82,1543.78 1720.82,1561.79C1720.82,1587.68 1710.94,1610.25 1691.27,1629.34C1671.52,1648.51 1647.54,1658.05 1619.32,1658.05C1597.58,1658.05 1577.83,1652.24 1560.15,1640.62C1542.48,1629 1526.13,1609.51 1511.19,1582.2ZM2178.26,1378.22C2219.01,1378.22 2252.87,1392.9 2279.68,1422.37C2304.07,1449.17 2316.28,1480.95 2316.28,1517.63C2316.28,1554.48 2303.41,1586.68 2277.6,1614.23C2251.88,1641.78 2218.68,1655.56 2178.26,1655.56L2178.1,1655.56L2177.15,1655.56C2136.99,1655.31 2104.08,1641.54 2078.6,1614.23C2052.79,1586.68 2039.93,1554.48 2039.93,1517.63C2039.93,1481.12 2052.13,1449.42 2076.52,1422.62C2103.29,1393.03 2137.18,1378.25 2178.1,1378.22L2178.26,1378.22ZM1803.73,1649.09L1769.87,1649.09L1769.87,1282.61L1803.73,1282.61L1803.73,1432.4C1817.51,1414.31 1832.78,1400.7 1849.29,1391.74C1865.89,1382.7 1883.82,1378.21 1903.15,1378.21C1922.98,1378.21 1940.58,1383.2 1955.93,1393.24C1971.28,1403.28 1982.65,1416.81 1989.95,1433.65C1997.26,1450.58 2000.91,1477.06 2000.91,1513.15L2000.91,1649.09L1967.05,1649.09L1967.05,1523.11C1967.05,1492.74 1965.8,1472.41 1963.4,1462.2C1959.17,1444.77 1951.45,1431.66 1940.33,1422.78C1929.21,1413.98 1914.6,1409.59 1896.51,1409.59C1875.85,1409.59 1857.34,1416.39 1840.99,1430C1824.64,1443.53 1813.86,1460.38 1808.63,1480.45C1805.39,1493.4 1803.73,1517.31 1803.73,1552.24L1803.73,1649.09ZM2178.1,1411.58C2149.8,1411.58 2125.57,1421.95 2105.23,1442.78C2084.91,1463.61 2074.78,1488.84 2074.78,1518.38C2074.78,1537.39 2079.42,1555.15 2088.64,1571.66C2097.93,1588.1 2110.46,1600.79 2126.23,1609.75C2141.91,1618.72 2159.26,1623.2 2178.1,1623.2L2178.54,1623.19C2197.2,1623.13 2214.41,1618.65 2229.96,1609.75C2245.73,1600.79 2258.26,1588.1 2267.56,1571.66C2276.78,1555.15 2281.42,1537.39 2281.42,1518.38C2281.42,1488.84 2271.21,1463.61 2250.8,1442.78C2230.62,1422.12 2206.61,1411.74 2178.76,1411.58L2178.1,1411.58ZM2495.13,1411.08C2465.66,1411.08 2440.93,1421.28 2420.85,1441.78C2400.68,1462.28 2390.64,1487.76 2390.64,1518.22C2390.64,1538.22 2395.13,1556.23 2404.09,1572.16C2413.05,1588.18 2425.91,1600.79 2442.59,1610.17C2459.13,1619.42 2476.54,1624.07 2494.78,1624.19L2495.21,1624.19L2495.54,1624.19C2513.8,1624.19 2530.97,1619.46 2547.07,1610C2563.18,1600.62 2575.96,1587.43 2585.5,1570.5C2595.04,1553.57 2599.77,1535.81 2599.77,1517.31C2599.77,1498.55 2595.04,1480.79 2585.58,1464.03C2576.12,1447.26 2563.42,1434.23 2547.41,1425.02C2531.5,1415.74 2514.01,1411.09 2495.21,1411.08L2495.13,1411.08Z" style="fill:rgb(255,133,60);"/>
            </g>
        </g>
        <g id="Shape" transform="matrix(0.173035,0,0,0.173035,29.1578,26.3959)">
            <g transform="matrix(0.24,0,0,0.24,0,0)">
                <path d="M1760.41,725.324L1582.1,725.324C1581.07,725.166 1580,725.163 1579,724.852C1578,724.54 1577.04,724.072 1576.18,723.478C1575.32,722.884 1574.64,722.061 1573.89,721.327C1573.76,721.197 1573.67,721.034 1573.55,720.888C1573.33,720.604 1573.1,720.32 1572.88,720.036C1572.54,719.613 1572.2,719.19 1571.86,718.768C1570.5,717.086 1569.11,715.424 1567.69,713.789C1566.15,712.02 1564.58,710.284 1562.98,708.574L1562.85,708.443L1562.61,708.257C1562.22,707.846 1561.83,707.436 1561.44,707.027C1560.27,705.817 1559.09,704.618 1557.89,703.439C1555.49,701.079 1553.02,698.785 1550.49,696.562C1543.17,690.129 1535.33,684.287 1527.07,679.115C1516.81,672.695 1505.91,667.311 1494.58,663.079C1484.85,659.444 1474.8,656.661 1464.58,654.767C1453.88,652.782 1442.99,651.777 1432.1,651.741C1423.27,651.712 1414.44,652.319 1405.69,653.57C1398.4,654.615 1391.16,656.108 1384.05,658.042C1373.41,660.935 1363.04,664.814 1353.11,669.611C1343.01,674.494 1333.36,680.327 1324.34,687.002C1316.45,692.838 1309.04,699.316 1302.19,706.351C1294.05,714.725 1286.71,723.887 1280.33,733.672C1275.3,741.379 1270.86,749.469 1267.07,757.853C1263.08,766.654 1259.82,775.776 1257.31,785.103C1255.02,793.596 1253.36,802.257 1252.34,810.993C1252.17,812.438 1252.03,813.886 1251.89,815.335C1251.84,815.904 1251.79,816.473 1251.74,817.042C1251.72,817.289 1251.7,817.536 1251.68,817.783C1251.66,818.121 1251.63,818.458 1251.61,818.795C1251.55,819.553 1251.5,820.312 1251.45,821.07C1251.43,821.348 1251.42,821.625 1251.4,821.903C1251.39,822.095 1251.38,822.291 1251.37,822.483C1251.37,822.507 1251.37,822.53 1251.37,822.553C1251.35,823.028 1251.33,823.503 1251.3,823.979C1251.26,824.926 1251.22,825.874 1251.19,826.822C1251.11,829.541 1251.1,832.264 1251.14,834.985C1251.17,836.913 1251.24,838.841 1251.33,840.767C1251.35,841.165 1251.37,841.57 1251.39,841.969C1251.42,842.532 1251.45,843.094 1251.49,843.656C1251.55,844.551 1251.62,845.445 1251.68,846.339C1251.68,846.358 1251.68,846.377 1251.68,846.396C1251.7,846.639 1251.72,846.882 1251.74,847.124C1251.82,848.065 1251.91,849.006 1252,849.946C1252.29,852.963 1252.67,855.973 1253.12,858.971C1254.67,869.339 1257.13,879.569 1260.47,889.507C1263.58,898.775 1267.45,907.786 1272.03,916.423C1276.97,925.724 1282.72,934.591 1289.19,942.892C1295.85,951.428 1303.28,959.366 1311.35,966.58C1319.82,974.147 1329,980.917 1338.73,986.767C1349.44,993.202 1360.82,998.519 1372.63,1002.6C1383.03,1006.18 1393.76,1008.81 1404.65,1010.43C1413.53,1011.76 1422.52,1012.42 1431.5,1012.42C1439.87,1012.42 1448.24,1011.84 1456.53,1010.69C1464.25,1009.62 1471.91,1008.05 1479.42,1005.98C1489.09,1003.32 1498.53,999.848 1507.62,995.61C1516.11,991.651 1524.29,987.026 1532.06,981.796C1538.45,977.495 1544.57,972.783 1550.36,967.703C1552.11,966.17 1553.83,964.602 1555.52,963.002C1556.43,962.137 1557.33,961.261 1558.23,960.379L1560.69,958.582C1563.21,957.7 1563.87,957.158 1566.61,957.442C1567.62,957.546 1568.62,957.803 1569.56,958.195C1570.5,958.588 1571.38,959.124 1572.17,959.771C1573.75,961.078 1574.91,962.824 1575.51,964.789C1575.8,965.761 1575.8,966.798 1575.95,967.803L1575.95,1154.52C1575.56,1157.16 1575.74,1158 1574.2,1160.3C1573.63,1161.15 1572.94,1161.92 1572.15,1162.57C1571.36,1163.21 1570.42,1163.63 1569.53,1164.14C1569.38,1164.23 1569.2,1164.28 1569.04,1164.34C1568.71,1164.48 1568.38,1164.62 1568.04,1164.76C1566.38,1165.44 1564.71,1166.11 1563.03,1166.77C1550.21,1171.82 1537.1,1176.12 1523.79,1179.65C1507.03,1184.09 1489.95,1187.31 1472.73,1189.28C1458.49,1190.9 1444.16,1191.68 1429.84,1191.62C1414.9,1191.55 1399.96,1190.57 1385.15,1188.66C1372.75,1187.06 1360.44,1184.82 1348.28,1181.94C1330.69,1177.77 1313.41,1172.26 1296.65,1165.47C1281.24,1159.23 1266.26,1151.91 1251.87,1143.59C1235.79,1134.3 1220.44,1123.77 1206,1112.12C1191.86,1100.72 1178.59,1088.25 1166.32,1074.86C1153.81,1061.2 1142.35,1046.57 1132.08,1031.15C1122.9,1017.37 1114.67,1002.95 1107.48,988.029C1101.13,974.851 1095.58,961.285 1090.89,947.428C1086.03,933.05 1082.08,918.361 1079.08,903.481C1076.89,892.581 1075.2,881.579 1074.03,870.522C1073.31,863.81 1072.8,857.079 1072.45,850.338L1072.45,850.258C1072.41,849.402 1072.37,848.545 1072.33,847.688C1072.3,846.927 1072.27,846.165 1072.24,845.404C1072.11,841.935 1072.03,838.464 1072,834.993C1071.96,830.155 1072.02,825.317 1072.17,820.481C1072.22,818.951 1072.28,817.422 1072.35,815.893C1072.38,815.221 1072.42,814.549 1072.45,813.877C1072.45,813.858 1072.45,813.838 1072.45,813.818C1072.48,813.16 1072.52,812.502 1072.55,811.844C1072.61,810.894 1072.66,809.944 1072.72,808.995C1072.9,806.216 1073.11,803.438 1073.35,800.664C1074.17,791.153 1075.37,781.674 1076.95,772.258C1080.51,750.999 1085.99,730.066 1093.32,709.795C1098.05,696.713 1103.55,683.909 1109.77,671.468C1116.55,657.896 1124.2,644.756 1132.65,632.15C1142.39,617.615 1153.19,603.79 1164.94,590.82C1176.21,578.377 1188.34,566.719 1201.23,555.959C1214.94,544.511 1229.5,534.082 1244.76,524.79C1259.23,515.973 1274.33,508.182 1289.91,501.5C1302.76,495.987 1315.94,491.23 1329.35,487.263C1342.61,483.34 1356.1,480.191 1369.72,477.831C1382.7,475.582 1395.8,474.051 1408.95,473.237C1413.51,472.954 1418.08,472.757 1422.66,472.647C1425.05,472.589 1427.44,472.557 1429.84,472.544C1430.69,472.541 1431.55,472.54 1432.41,472.542C1433.93,472.547 1435.46,472.559 1436.98,472.581C1440.31,472.631 1443.64,472.727 1446.97,472.868C1456.26,473.261 1465.53,474.011 1474.76,475.118C1498.05,477.913 1521.06,482.996 1543.35,490.29C1561.1,496.098 1578.39,503.303 1595.02,511.811C1610.97,519.972 1626.3,529.332 1640.86,539.779C1656.49,550.999 1671.22,563.472 1684.87,577.037C1698.92,591.001 1711.82,606.119 1723.39,622.193C1736.03,639.747 1747.09,658.44 1756.37,677.979C1759.81,685.236 1763.02,692.608 1765.97,700.081C1767.45,703.83 1768.86,707.605 1770.22,711.401L1770.8,714.18C1770.74,715.124 1770.8,716.086 1770.61,717.013C1770.42,717.94 1770.1,718.849 1769.66,719.69C1769.23,720.531 1768.67,721.319 1768.03,722.011C1766.72,723.409 1765.06,724.421 1763.22,724.937C1762.31,725.192 1761.35,725.195 1760.41,725.324ZM1548.79,739.909C1549.65,740.285 1550.58,740.548 1551.39,741.039C1553.02,742.031 1554.35,743.452 1555.23,745.147C1555.66,745.986 1555.88,746.92 1556.17,747.82C1556.25,748.055 1556.28,748.304 1556.33,748.546C1556.43,749.037 1556.53,749.529 1556.63,750.02C1556.8,750.782 1556.96,751.542 1557.13,752.303C1557.81,755.403 1558.56,758.487 1559.43,761.543C1560.48,765.267 1561.69,768.945 1563.05,772.569C1565.58,779.322 1568.6,785.883 1571.96,792.262C1575.46,798.916 1579.33,805.379 1583.42,811.683C1585.76,815.275 1588.17,818.816 1590.65,822.312C1591.82,823.964 1593,825.611 1594.21,827.233C1595.27,828.649 1596.36,830.046 1597.47,831.422C1601.96,836.983 1606.85,842.208 1612.03,847.133C1620.42,855.119 1629.53,862.31 1638.9,869.114C1648.01,875.729 1657.36,881.997 1666.66,888.33C1667.6,888.975 1668.55,889.621 1669.49,890.267C1670.68,891.078 1671.86,891.89 1673.04,892.705L1673.75,893.192C1675.77,895.099 1676.6,895.447 1677.6,898.144C1677.97,899.135 1678.18,900.196 1678.24,901.252C1678.34,903.389 1677.78,905.507 1676.64,907.318C1676.08,908.213 1675.37,909.03 1674.56,909.713C1672.37,911.572 1671.47,911.467 1668.78,912.138C1668.48,912.165 1668.18,912.192 1667.87,912.218C1666.78,912.305 1665.68,912.376 1664.58,912.421C1663.63,912.46 1662.68,912.479 1661.74,912.488C1567.35,912.766 1472.97,912.956 1378.59,912.487C1374.17,912.45 1369.76,912.069 1365.41,911.301C1363.19,910.909 1360.99,910.43 1358.81,909.854C1354.67,908.76 1350.62,907.329 1346.71,905.587C1338.66,902.004 1331.21,897.1 1324.69,891.176C1317.89,884.996 1312.11,877.715 1307.58,869.717C1303.03,861.663 1299.76,852.891 1297.92,843.823C1296.04,834.564 1295.65,825.006 1296.74,815.622C1297.29,810.843 1298.23,806.109 1299.55,801.482C1301.84,793.48 1305.26,785.805 1309.69,778.763C1313.86,772.147 1318.91,766.093 1324.69,760.835C1328.32,757.537 1332.24,754.553 1336.39,751.939C1340.41,749.404 1344.66,747.217 1349.06,745.422C1354.65,743.143 1360.49,741.497 1366.45,740.536C1369.14,740.102 1371.86,739.807 1374.58,739.652C1376,739.57 1377.43,739.53 1378.85,739.523L1379.11,739.522L1545.98,739.522C1546.91,739.651 1547.85,739.78 1548.79,739.909ZM1286.25,619.004C1291.39,619.004 1295.6,614.799 1295.6,609.658L1295.6,583.141C1295.6,578.004 1291.39,573.795 1286.25,573.795L1259.73,573.795C1254.59,573.795 1250.39,578.004 1250.39,583.141L1250.39,609.658C1250.39,614.8 1254.59,619.004 1259.73,619.004L1286.25,619.004ZM1264.6,491.611L1219.51,491.611C1210.77,491.611 1203.62,484.461 1203.62,475.723L1203.62,430.636C1203.62,421.898 1210.77,414.748 1219.51,414.748L1264.6,414.748C1273.34,414.748 1280.49,421.898 1280.49,430.636L1280.49,475.723C1280.49,484.46 1273.34,491.61 1264.6,491.611Z" style="fill:white;"/>
            </g>
            <g transform="matrix(0.24,0,0,0.24,0,0)">
                <path d="M1925.34,739.754C1931.26,741.02 1937.13,742.437 1942.96,744.043C1956.05,747.648 1968.9,752.173 1981.25,757.832C1991.84,762.687 2002.05,768.381 2011.64,774.992C2016.95,778.649 2022.07,782.584 2026.95,786.793C2031.28,790.517 2035.41,794.457 2039.34,798.596C2046.15,805.783 2052.32,813.576 2057.76,821.849C2062.01,828.308 2065.82,835.057 2069.18,842.018C2071.96,847.782 2074.44,853.693 2076.63,859.708C2081.04,871.821 2084.27,884.347 2086.52,897.035C2087.56,902.912 2088.39,908.826 2089.04,914.759C2089.32,917.371 2089.57,919.986 2089.78,922.604L2089.83,922.798C2089.93,924.12 2090.03,925.443 2090.12,926.767C2090.32,929.73 2090.47,932.697 2090.59,935.665C2090.76,940.084 2090.84,944.506 2090.84,948.929C2090.84,950.778 2090.84,952.628 2090.84,954.477C2090.83,957.201 2090.77,959.924 2090.64,962.646C2090.4,967.957 2089.92,973.259 2089.19,978.526C2088.61,982.721 2087.88,986.894 2086.98,991.033C2085.95,995.774 2084.72,1000.47 2083.29,1005.1C2080.78,1013.21 2077.66,1021.13 2074.06,1028.82C2070.68,1036.05 2066.88,1043.07 2062.78,1049.92C2059.46,1055.44 2055.95,1060.85 2052.31,1066.16C2051.05,1068 2049.77,1069.83 2048.47,1071.64C2047.71,1072.71 2046.95,1073.77 2046.17,1074.83C2045.17,1076.19 2044.15,1077.54 2043.11,1078.87C2038.95,1084.18 2034.5,1089.25 2029.81,1094.09C2021.79,1102.37 2013.09,1110 2003.94,1117.01C1993.13,1125.28 1981.68,1132.71 1969.79,1139.34C1954.01,1148.14 1937.46,1155.53 1920.44,1161.58C1895.14,1170.58 1868.81,1176.61 1842.16,1179.81C1826.66,1181.68 1811.04,1182.59 1795.43,1182.59C1787.83,1182.59 1780.23,1182.35 1772.64,1181.99C1764.84,1181.63 1757.04,1181.15 1749.25,1180.6C1741.22,1180.03 1733.2,1179.37 1725.18,1178.66C1716.2,1177.86 1707.23,1176.99 1698.26,1176.05C1689.77,1175.16 1681.29,1174.2 1672.82,1173.19C1662.99,1172.01 1653.17,1170.75 1643.37,1169.38C1635.83,1168.33 1628.3,1167.21 1620.79,1166.01C1613.56,1164.84 1606.34,1163.6 1599.15,1162.2L1598.57,1162.08C1597.66,1161.77 1596.71,1161.58 1595.86,1161.15C1595.01,1160.72 1594.21,1160.17 1593.51,1159.52C1592.09,1158.22 1591.07,1156.55 1590.54,1154.69C1590.28,1153.78 1590.28,1152.81 1590.15,1151.86L1590.15,963.91C1590.49,961.454 1590.33,960.702 1591.65,958.52C1592.64,956.894 1594.05,955.568 1595.73,954.686C1596.56,954.248 1597.46,953.922 1598.38,953.725C1599.3,953.528 1600.26,953.455 1601.2,953.512C1602.14,953.57 1603.08,953.757 1603.97,954.064C1604.86,954.371 1605.66,954.895 1606.49,955.339C1606.65,955.429 1606.8,955.555 1606.96,955.663C1607.26,955.873 1607.57,956.082 1607.87,956.29C1608.33,956.603 1608.8,956.915 1609.26,957.225C1611.45,958.681 1613.66,960.099 1615.89,961.475C1623.93,966.416 1632.28,970.845 1640.8,974.872C1650.83,979.606 1661.11,983.788 1671.54,987.518C1682.37,991.388 1693.37,994.774 1704.49,997.699C1713.37,1000.03 1722.32,1002.08 1731.34,1003.77C1733.04,1004.09 1734.73,1004.39 1736.43,1004.68C1737.22,1004.8 1738,1004.92 1738.79,1005.04C1741.37,1005.43 1743.95,1005.8 1746.54,1006.14C1751.27,1006.77 1756.01,1007.3 1760.76,1007.7C1767.35,1008.26 1773.97,1008.57 1780.59,1008.57C1786.77,1008.57 1792.95,1008.3 1799.11,1007.81C1806.74,1007.21 1814.35,1006.28 1821.93,1005.24C1822.22,1005.2 1822.52,1005.15 1822.82,1005.11C1825.29,1004.72 1827.73,1004.21 1830.16,1003.62C1832.75,1003 1835.31,1002.29 1837.85,1001.5C1844.11,999.554 1850.22,997.13 1856.06,994.168C1857.33,993.523 1858.59,992.852 1859.84,992.154C1860.39,991.845 1860.93,991.529 1861.48,991.212C1861.75,991.064 1862.02,990.916 1862.29,990.765C1863.47,990.089 1864.63,989.365 1865.76,988.584C1867.97,987.05 1870.04,985.309 1871.91,983.383C1874.17,981.069 1876.16,978.489 1877.81,975.709C1879.64,972.61 1881.07,969.268 1882.03,965.797C1882.72,963.337 1883.17,960.814 1883.4,958.27C1883.52,956.969 1883.58,955.663 1883.58,954.357L1883.58,950.969C1883.02,946.947 1882.08,942.95 1880.49,939.202C1879.52,936.901 1878.3,934.706 1876.83,932.691C1876.13,931.744 1875.38,930.838 1874.58,929.978C1874.03,929.381 1873.45,928.807 1872.85,928.255C1869.27,924.946 1864.98,922.478 1860.5,920.575C1859.72,920.242 1858.93,919.926 1858.13,919.625C1857.12,919.242 1856.1,918.883 1855.07,918.547C1853.87,918.157 1852.66,917.799 1851.45,917.462L1851.17,917.385C1845.2,916.173 1839.23,914.98 1833.25,913.816C1818.96,911.034 1804.65,908.379 1790.33,905.739C1789.08,905.487 1787.82,905.234 1786.56,904.977C1783.53,904.355 1780.5,903.719 1777.48,903.063C1770.2,901.483 1762.94,899.799 1755.72,897.99C1741.2,894.357 1726.79,890.233 1712.62,885.414C1707.45,883.656 1702.31,881.804 1697.22,879.844C1695.43,879.157 1693.65,878.457 1691.87,877.743C1691.22,877.478 1690.56,877.212 1689.9,876.944C1689.66,876.845 1689.42,876.748 1689.18,876.647C1688.45,876.339 1687.72,876.017 1686.99,875.698C1685.59,875.083 1684.19,874.458 1682.79,873.82C1678.69,871.944 1674.63,869.968 1670.62,867.888C1658.97,861.839 1647.78,854.896 1637.33,846.939C1631.54,842.527 1625.98,837.806 1620.72,832.774C1615.89,828.163 1611.31,823.291 1607.03,818.174C1600.39,810.255 1594.46,801.75 1589.34,792.779C1584.84,784.902 1580.97,776.672 1577.73,768.202C1576.44,764.844 1575.26,761.449 1574.17,758.023C1573.62,756.3 1573.1,754.568 1572.6,752.831L1572.19,750.113C1572.3,749.203 1572.29,748.271 1572.51,747.383C1572.74,746.495 1573.08,745.63 1573.53,744.832C1574.44,743.221 1575.75,741.88 1577.35,740.947C1578.14,740.485 1579,740.125 1579.88,739.885C1580.77,739.645 1581.7,739.643 1582.61,739.522L1923.16,739.522C1923.89,739.6 1924.62,739.677 1925.34,739.754ZM1801.64,432.405C1803.68,432.411 1805.71,432.428 1807.75,432.464C1811.5,432.53 1815.24,432.652 1818.99,432.83C1829.01,433.308 1839.02,434.194 1848.97,435.496C1859.08,436.818 1869.13,438.569 1879.1,440.725C1889.36,442.943 1899.52,445.591 1909.57,448.621C1916.74,450.784 1923.86,453.129 1930.89,455.704C1941.78,459.687 1952.48,464.211 1962.87,469.353C1971.22,473.483 1979.38,478.013 1987.25,482.989C1993.82,487.136 2000.19,491.591 2006.3,496.382C2015.17,503.338 2023.5,511.008 2030.99,519.444C2032.64,521.309 2034.26,523.212 2035.83,525.152C2036.6,526.105 2037.35,527.069 2038.1,528.039L2038.37,528.391C2038.87,529.294 2039.51,530.134 2039.87,531.101C2040.23,532.069 2040.45,533.102 2040.51,534.133C2040.63,536.218 2040.12,538.291 2039.05,540.082C2038.52,540.968 2037.73,541.676 2037.08,542.474L1922.56,645.536C1921.68,646.112 1920.88,646.828 1919.93,647.265C1918,648.149 1915.84,648.421 1913.75,648.046C1912.72,647.86 1911.7,647.513 1910.77,647.027C1909.84,646.541 1909.06,645.805 1908.23,645.164C1908.08,645.047 1907.96,644.892 1907.82,644.755C1907.42,644.357 1907.02,643.959 1906.62,643.563C1906.09,643.041 1905.56,642.522 1905.02,642.004C1898.89,636.073 1892.49,630.399 1885.66,625.274C1882.92,623.218 1880.11,621.253 1877.22,619.414C1874.54,617.706 1871.78,616.106 1868.95,614.662C1867.51,613.928 1866.05,613.235 1864.56,612.591C1863.22,612.012 1861.87,611.477 1860.5,610.965C1858.47,610.204 1856.42,609.502 1854.35,608.861C1847.04,606.598 1839.51,605.102 1831.9,604.326C1828.67,603.998 1825.44,603.798 1822.2,603.717C1819.83,603.659 1817.46,603.669 1815.09,603.708C1810.37,603.786 1805.66,604.015 1800.96,604.449C1795.6,604.947 1790.24,605.711 1784.98,606.892C1780.61,607.871 1776.3,609.138 1772.16,610.844C1767.53,612.753 1763.08,615.231 1759.29,618.539C1758.2,619.491 1757.18,620.511 1756.22,621.593L1753.75,623.628C1752.76,624.026 1751.82,624.58 1750.79,624.82C1748.68,625.307 1746.48,625.13 1744.49,624.312C1743.5,623.908 1742.56,623.344 1741.75,622.66C1740.93,621.976 1740.32,621.075 1739.64,620.255C1739.5,620.088 1739.41,619.889 1739.29,619.706C1739.06,619.345 1738.83,618.985 1738.6,618.624C1738.25,618.085 1737.9,617.546 1737.56,617.008C1736.04,614.68 1734.5,612.369 1732.92,610.079C1729.78,605.504 1726.53,601.009 1723.16,596.598C1712.56,582.714 1700.85,569.673 1688.19,557.637C1675.06,545.15 1660.89,533.745 1645.89,523.58C1640.93,520.222 1635.88,516.998 1630.75,513.915C1627.81,512.148 1624.83,510.43 1621.84,508.753L1619.52,506.983C1618.94,506.201 1618.24,505.493 1617.78,504.638C1616.84,502.91 1616.41,500.952 1616.53,498.99C1616.6,498.018 1616.8,497.047 1617.13,496.131C1617.46,495.215 1617.92,494.338 1618.5,493.55C1619.42,492.269 1620.12,491.765 1621.17,490.948C1621.61,490.607 1622.05,490.268 1622.49,489.93C1624.49,488.396 1626.52,486.894 1628.56,485.422C1636.57,479.67 1644.9,474.385 1653.47,469.516C1656.61,467.73 1659.79,466 1662.99,464.323C1664.07,463.756 1665.16,463.195 1666.25,462.64C1666.78,462.367 1667.32,462.098 1667.85,461.826C1668.55,461.474 1669.24,461.118 1669.94,460.769C1671.21,460.132 1672.49,459.506 1673.77,458.89C1677.57,457.056 1681.42,455.313 1685.31,453.667C1694.02,449.983 1702.93,446.789 1711.99,444.106C1718.57,442.161 1725.22,440.484 1731.93,439.064C1738.78,437.615 1745.68,436.434 1752.61,435.494C1766.17,433.656 1779.84,432.733 1793.52,432.475C1795.21,432.443 1796.9,432.424 1798.59,432.411C1799.61,432.407 1800.62,432.404 1801.64,432.405ZM1156.22,573.161L1120.41,573.161C1113.47,573.161 1107.79,567.482 1107.79,560.545L1107.79,524.732C1107.79,517.79 1113.47,512.111 1120.41,512.111L1156.22,512.111C1163.16,512.111 1168.84,517.79 1168.84,524.732L1168.84,560.545C1168.84,567.482 1163.16,573.161 1156.22,573.161ZM1147.91,458.867L1092.18,458.867C1081.38,458.867 1072.55,450.026 1072.55,439.226L1072.55,383.501C1072.55,372.701 1081.38,363.859 1092.18,363.859L1147.91,363.859C1158.71,363.859 1167.55,372.701 1167.55,383.501L1167.55,439.226C1167.55,450.026 1158.71,458.867 1147.91,458.867Z" style="fill:rgb(255,133,60);"/>
            </g>
        </g>
    </g>
</svg>
